<?xml version="1.0"?>
<svg xmlns="http://www.w3.org/2000/svg" xmlns:xlink="http://www.w3.org/1999/xlink" xmlns:svgjs="http://svgjs.com/svgjs" version="1.1" width="512" height="512" x="0" y="0" viewBox="0 0 128 128" style="enable-background:new 0 0 512 512" xml:space="preserve" class=""><g><path xmlns="http://www.w3.org/2000/svg" d="m110.75 43.469a6.137 6.137 0 0 0 -6.13-6.131h-18.61v-5.17a13.441 13.441 0 0 0 -13.43-13.42h-17.17a13.436 13.436 0 0 0 -13.42 13.42v5.17h-18.61a6.137 6.137 0 0 0 -6.13 6.131v11.01 44.84a9.942 9.942 0 0 0 9.93 9.931h73.64a9.941 9.941 0 0 0 9.93-9.931v-44.838zm-65.26-11.3a9.932 9.932 0 0 1 9.92-9.92h17.17a9.936 9.936 0 0 1 9.93 9.92v5.17h-3.5v-5.17a6.433 6.433 0 0 0 -6.43-6.42h-17.17a6.427 6.427 0 0 0 -6.42 6.42v5.17h-3.5zm7 5.17v-5.17a2.924 2.924 0 0 1 2.92-2.92h17.17a2.929 2.929 0 0 1 2.93 2.92v5.17zm-31.74 6.13a2.634 2.634 0 0 1 2.63-2.631h81.24a2.634 2.634 0 0 1 2.63 2.631v11.01a14.576 14.576 0 0 1 -14.56 14.56h-22.22v-1.891a5.31 5.31 0 0 0 -5.31-5.3h-2.32a5.31 5.31 0 0 0 -5.31 5.3v1.891h-22.22a14.577 14.577 0 0 1 -14.56-14.56zm40.28 27.321v-3.642a1.807 1.807 0 0 1 1.81-1.8h2.32a1.807 1.807 0 0 1 1.81 1.8v3.641 3.631a1.812 1.812 0 0 1 -1.81 1.81h-2.32a1.812 1.812 0 0 1 -1.81-1.81zm46.22 28.531a6.438 6.438 0 0 1 -6.43 6.431h-73.64a6.438 6.438 0 0 1 -6.43-6.431v-34.2a18.029 18.029 0 0 0 14.56 7.42h22.22v1.882a5.316 5.316 0 0 0 5.31 5.31h2.32a5.316 5.316 0 0 0 5.31-5.31v-1.884h22.22a18.029 18.029 0 0 0 14.56-7.42z" fill="#ffffff" data-original="#000000" style="" class=""/></g></svg>
